<?xml version="1.0" standalone="no"?>
<!DOCTYPE svg PUBLIC "-//W3C//DTD SVG 20010904//EN"
 "http://www.w3.org/TR/2001/REC-SVG-20010904/DTD/svg10.dtd">
<svg version="1.0" xmlns="http://www.w3.org/2000/svg"
 width="779.000000pt" height="779.000000pt" viewBox="0 0 779.000000 779.000000"
 preserveAspectRatio="xMidYMid meet">
<metadata>
Created by potrace 1.14, written by Peter Selinger 2001-2017
</metadata>
<g transform="translate(0.000000,779.000000) scale(0.100000,-0.100000)"
fill="#000000" stroke="none">
<path d="M1195 7774 c-527 -94 -939 -503 -1036 -1029 -17 -96 -18 -221 -18
-2845 0 -1605 4 -2770 9 -2805 40 -257 139 -474 307 -665 182 -207 422 -346
704 -407 80 -17 211 -18 2744 -18 l2660 0 95 24 c485 122 829 460 957 941 l28
105 2 2785 c2 2992 5 2827 -47 3018 -28 105 -126 300 -198 397 -153 205 -385
374 -617 450 -197 64 56 59 -2860 61 -2254 2 -2662 0 -2730 -12z"/>
</g>
</svg>
